<svg width="230" height="44" viewBox="0 0 363 70" xmlns="http://www.w3.org/2000/svg" xmlns:xlink="http://www.w3.org/1999/xlink"><title>logo</title><defs><path id="a" d="M0 .3V67h49.8V.3H0z"/><path id="c" d="M0 75.3h362.97V0H0z"/></defs><g transform="translate(0 -3)" fill="none" fill-rule="evenodd"><g transform="translate(0 4.29)"><mask id="b" fill="#fff"><use xlink:href="#a"/></mask><path d="M31.64 23.72c-1.15 1.83-2.6 3.3-4.33 4.4-1.7 1.07-3.6 1.85-5.7 2.3-2.1.43-4.1.65-6.1.65-1.3 0-2.4-.03-3.4-.1-.9-.05-1.8-.15-2.5-.3V25.5c0-3.46.1-6.94.2-10.33L10 5.05c.97-.12 2.1-.2 3.4-.3 1.46-.1 3.32-.14 5.54-.14 1.64 0 3.3.2 5 .6 1.68.4 3.25 1 4.67 1.9 1.4.9 2.6 2.2 3.5 3.8.9 1.6 1.4 3.6 1.4 6 0 2.8-.6 5.1-1.7 7m13.8 38.5c-1.4-1.7-3-3.6-4.6-5.7-1.62-2-3.4-4.2-5.13-6.5l-5.2-6.5c-1.6-1.9-3.1-3.8-4.5-5.7l-2.74-3.5c1.7-.3 3.6-.8 5.63-1.5 2.3-.8 4.46-1.9 6.46-3.4s3.7-3.3 5.1-5.5c1.4-2.22 2.1-4.94 2.1-8.1 0-2.9-.5-5.4-1.6-7.33-1.14-2-2.64-3.6-4.44-4.8-1.84-1.2-4.03-2.1-6.5-2.6C27.6.67 25 .37 22.3.37c-1.84 0-3.7.1-5.5.25-3.52.3-7.32.3-10.86.1L.42.4 0 .3l.02.4c.2 4.22.37 8.36.53 12.4.16 4.07.23 8.24.23 12.4v16.48c0 4.16-.07 8.34-.23 12.44C.4 58.5.2 62.55.02 66.48L0 66.9l.42-.02c1.44-.12 3-.2 4.66-.2 1.66 0 3.23.08 4.67.2l.42.04-.02-.42c-.2-4.08-.38-8.15-.53-12.06C9.46 50.4 9.4 46.2 9.4 42v-6.63h3.1c2 2.08 4.2 4.62 6.6 7.6 2.46 3 4.9 6.1 7.23 9.13 2.34 3.03 4.52 5.93 6.46 8.6l4.3 6.03.1.2.2-.03c.9-.12 1.8-.2 2.7-.2h5.6c.9 0 1.9.08 2.8.2l1.1.14-.8-.76c-.9-.88-2.1-2.2-3.5-3.9" fill="#007CB1" mask="url(#b)"/></g><path d="M101.88 4.67c-3.5-.86-7.4-1.3-11.64-1.3-5.3 0-10.26.78-14.68 2.3-4.43 1.56-8.3 3.84-11.47 6.8-3.2 2.96-5.8 6.63-7.5 10.9-1.8 4.27-2.7 9.2-2.7 14.66 0 5.45.9 10.4 2.6 14.65 1.7 4.28 4.2 7.95 7.3 10.9 3.1 2.97 6.9 5.2 11.2 6.65 4.3 1.45 9 2.18 14.1 2.18 2.4 0 4.7-.1 6.8-.5s4.12-.8 5.9-1.3c1.73-.5 3.3-1 4.53-1.6 1.3-.6 2.2-1.2 2.8-1.7l.1-.1.94-5.9-.73-.7-.25.2c-.9.7-2 1.5-3.3 2.44-1.3.9-2.78 1.76-4.38 2.55-1.6.8-3.4 1.47-5.3 2.04-1.9.56-4 .84-6.3.84-3.7 0-7.2-.6-10.35-1.8-3.15-1.16-5.94-3-8.3-5.5-2.33-2.45-4.2-5.64-5.5-9.42-1.33-3.8-2-8.4-2-13.6s.67-9.8 2-13.6c1.3-3.8 3.17-6.97 5.5-9.45 2.36-2.5 5.15-4.36 8.3-5.56 3.2-1.2 6.7-1.8 10.4-1.8 2.27 0 4.35.3 6.2.9 1.9.6 3.6 1.37 5.1 2.2 1.5.9 2.87 1.8 4 2.7 1.14 1 2 1.8 2.64 2.6l.17.2 1-.32.06-.2.74-3.8c.3-1.5.74-2.7 1.2-3.53l.2-.4L111 8c-2.7-1.2-5.84-2.24-9.3-3.1m117.9 37.3c-1.5-2.1-3.44-3.9-5.7-5.24-2.23-1.37-4.68-2.5-7.3-3.45-2.55-.9-4.97-1.9-7.17-3.1s-4.03-2.6-5.5-4.3c-1.44-1.7-2.16-4-2.16-6.9 0-1.62.3-3.2.9-4.6.57-1.4 1.4-2.6 2.48-3.64 1.1-1 2.37-1.8 3.8-2.35 1.47-.6 3.1-.87 4.8-.87 1.75 0 3.24.3 4.46.88 1.3.6 2.3 1.34 3.2 2.2.9.9 1.6 1.83 2.2 2.85.6 1.04 1 2 1.3 2.88l.1.25h1.7l.1-.3c.4-1.83.8-3.36 1.2-4.56.4-1.2.8-2.3 1.4-3.4l.1-.26-.26-.2c-1.9-1.58-4.06-2.7-6.3-3.5-2.3-.73-5-1.1-8.1-1.1-3.23 0-6.2.46-8.76 1.36-2.6.9-4.84 2.16-6.7 3.8-1.86 1.6-3.3 3.6-4.27 5.8-1 2.2-1.47 4.74-1.47 7.46 0 3.83.75 6.93 2.3 9.2 1.52 2.27 3.43 4.16 5.7 5.6 2.24 1.46 4.7 2.68 7.3 3.65 2.55 1 5 2 7.2 3.2 2.2 1.1 4.02 2.54 5.5 4.2 1.4 1.66 2.15 3.9 2.15 6.76 0 1.85-.3 3.63-.93 5.3-.6 1.6-1.5 3.05-2.65 4.25-1.17 1.2-2.58 2.17-4.2 2.9-1.7.7-3.5 1.05-5.6 1.05-2 0-3.8-.3-5.4-.9-1.66-.6-3.1-1.36-4.3-2.3-1.2-.96-2.26-2-3.1-3.16-.8-1.15-1.5-2.3-2-3.4l-.1-.25h-1.74v.3c-.2 1.83-.4 3.4-.6 4.5-.23 1.2-.63 2.5-1.2 3.9l-.1.3.2.2c1.7 1.35 3.8 2.6 6.28 3.64 2.5 1.04 5.8 1.6 9.8 1.6 3.77 0 7.1-.55 10.1-1.6 2.95-1.08 5.47-2.6 7.5-4.6 2.04-1.96 3.6-4.3 4.7-6.97 1.05-2.7 1.6-5.5 1.6-8.5 0-3.54-.8-6.45-2.34-8.6" fill="#007CB1"/><path d="M232.13 3.17V72.1" stroke="#CBB677" stroke-width="1.36"/><path d="M250.7 6.64c-.62-1.08-1.36-1.7-2.68-1.7-1.4 0-2.6 1-2.6 2.42 0 1.34 1.4 1.96 2.45 2.44l1.04.45c2.1.9 3.8 1.9 3.8 4.38 0 2.73-2.2 4.8-4.9 4.8-2.5 0-4.3-1.6-4.8-4l1.7-.5c.2 1.6 1.5 2.9 3.1 2.9 1.7 0 3.2-1.28 3.2-3.03 0-1.82-1.4-2.44-2.8-3.1l-.9-.4c-1.8-.84-3.4-1.77-3.4-4 0-2.42 2.1-3.97 4.4-3.97 1.7 0 3.2.9 4 2.42l-1.4.9zm5.1-3.04h8.08v1.6h-6.35v4.64h6.16v1.6h-6.2v6.12h6.3v1.62h-8.1m15.8 0h-1.8V5.2H266V3.6h9.3v1.6h-3.8m10.33 13.98h-1.73V5.2h-3.75V3.6h9.3v1.6h-3.8" fill="#007CB1"/><mask id="d" fill="#fff"><use xlink:href="#c"/></mask><path fill="#007CB1" mask="url(#d)" d="M288.14 19.18h1.73V3.6h-1.73m5.62-.66l12.14 12.73V3.6h1.74v16.28L295.5 7.18v12h-1.74m32.22-7.83c.04 2.1-.2 3.84-1.62 5.5-1.42 1.64-3.6 2.6-5.76 2.6-4.38 0-8-3.64-8-8.02 0-4.46 3.62-8.1 8.1-8.1 2.73 0 4.94 1.22 6.6 3.37l-1.26 1.18c-1.3-1.84-3.06-2.94-5.36-2.94-3.55 0-6.36 3-6.36 6.5 0 1.66.66 3.23 1.82 4.4 1.14 1.15 2.8 2 4.42 2 2.7 0 5.56-2 5.56-4.88h-4.63v-1.6h6.4zM248.5 41.7l4.45-11.87h1.88l-6.32 16.5-6.3-16.5h1.9m13.1 0h8.1v1.6H259v4.64h6.15v1.6H259v6.13h6.32v1.6h-8.1m15.78 0h-1.73V31.45h-3.8v-1.6h9.3v1.6h-3.8m6.2-1.62h8.08v1.6h-6.35v4.64h6.2v1.6h-6.14v6.13h6.34v1.6h-8.1m13.4-8.36h.5c1.97 0 3.95-.37 3.95-2.8 0-2.55-1.9-2.8-3.98-2.8h-.5v5.6zm0 8.37h-1.77V29.9h2.2c3 0 5.74.8 5.74 4.3 0 2.4-1.5 4.1-3.9 4.3l4.95 6.98h-2.14l-4.7-6.83h-.44v6.84zm10.1 0h1.72V29.9h-1.75m5.64-.67l12.2 12.73v-12.1h1.8V46.1L310 33.4v12h-1.74m23.43-12.26l-2.7 6.24h5.2l-2.6-6.24zM328.3 41l-1.87 4.4h-1.9l7.18-16.3 7.1 16.3h-1.9L335 41h-6.66zm14.46-3.96h.54c1.96 0 3.94-.37 3.94-2.8 0-2.55-1.88-2.8-3.96-2.8h-.52v5.6zm0 8.37h-1.73V29.9h2.25c2.95 0 5.7.8 5.7 4.3 0 2.4-1.5 4.1-3.9 4.3l4.95 6.98h-2.13l-4.7-6.83h-.44v6.84zm8.27-15.5h2l3.97 6.9 3.93-6.9h2l-5.1 8.9v6.7h-1.73v-6.7M250.7 59.1c-.62-1.07-1.36-1.7-2.68-1.7-1.4 0-2.6 1-2.6 2.43 0 1.34 1.4 1.96 2.45 2.43l1.04.46c2.1.88 3.8 1.9 3.8 4.38 0 2.72-2.2 4.8-4.9 4.8-2.5 0-4.3-1.6-4.8-4.02l1.7-.48c.2 1.6 1.5 2.9 3.1 2.9 1.7 0 3.2-1.28 3.2-3.04 0-1.82-1.4-2.44-2.8-3.1l-.9-.4c-1.8-.84-3.4-1.77-3.4-4 0-2.42 2.1-3.96 4.4-3.96 1.7 0 3.2.88 4 2.4l-1.4.9zm9.23 12.54h-1.73V57.67h-3.76v-1.6h9.3v1.6h-3.8m10.24 1.7l-2.67 6.24h5.3l-2.6-6.2zm-3.37 7.85l-1.8 4.42h-1.9l7.2-16.32 7 16.32h-1.9l-1.8-4.42H267zm12.9-11.82l12.2 12.73V56.07h1.8v16.27l-12.1-12.7v12h-1.7m20.78-1.6c1.9 0 3.5-.28 4.9-1.6 1.3-1.2 1.95-2.85 1.95-4.6 0-1.77-.7-3.5-2.07-4.66-1.4-1.26-3-1.5-4.8-1.5h-1.3v12.35h1.3zm-3-13.97h2.9c2.38 0 4.28.3 6.1 1.87 1.8 1.53 2.6 3.62 2.6 5.93 0 2.27-.82 4.28-2.54 5.8-1.85 1.66-3.7 1.97-6.14 1.97h-2.9V56.07zm20.3 3.3l-2.63 6.24h5.3l-2.6-6.2zm-3.33 7.85l-1.9 4.42h-1.9l7.2-16.32 7 16.32h-2l-1.9-4.42h-6.66zm14.4-3.95h.55c1.96 0 3.95-.37 3.95-2.78 0-2.6-1.9-2.9-3.94-2.9h-.5v5.6zm0 8.37h-1.72V56.07h2.24c2.98 0 5.7.78 5.7 4.3 0 2.4-1.5 4.08-3.9 4.3l4.98 6.97H334l-4.7-6.84h-.45v6.84zm13.1-1.6c1.9 0 3.5-.28 4.9-1.6 1.3-1.2 1.95-2.85 1.95-4.6 0-1.77-.7-3.5-2.03-4.66-1.43-1.26-3-1.5-4.84-1.5h-1.26v12.35h1.2zm-3-13.97h2.9c2.34 0 4.24.3 6.1 1.87 1.76 1.53 2.6 3.62 2.6 5.93 0 2.27-.86 4.28-2.57 5.8-1.84 1.66-3.7 1.97-6.14 1.97h-3V56.07zm21.7 3.03c-.64-1.07-1.4-1.7-2.7-1.7-1.4 0-2.6 1-2.6 2.43 0 1.34 1.37 1.96 2.43 2.43l1.03.46c2 .88 3.74 1.9 3.74 4.38 0 2.72-2.2 4.8-4.9 4.8-2.5 0-4.4-1.6-4.9-4.02l1.7-.48c.2 1.6 1.4 2.9 3.1 2.9 1.7 0 3.2-1.28 3.2-3.04 0-1.82-1.4-2.44-2.9-3.1l-.96-.4c-1.8-.84-3.4-1.77-3.4-4 0-2.42 2.1-3.96 4.4-3.96 1.7 0 3.2.88 4 2.4l-1.4.9z"/><path fill="#CBB677" mask="url(#d)" d="M172.1 3.1h-50.3L146.75 57"/><path d="M146.8 72.74L117.2 11.6v25.96c.6 23.52 28.87 34.95 29.16 35.06l.4.15.6-.2c.5-.2 28.53-11.5 29.12-35.03V11.6l-29.7 61.14z" fill="#CBB677" mask="url(#d)"/></g></svg>